:SAMPLES-PER-SECOND 30
:FRAME-RANGE 1-2009
:FULLY-SPECIFIED
:DEGREES
377
root  33.8663 38.1384 98.8795 -171.351 -67.3487 172.779
RightUpLeg  -15.4987 -6.50684 -11.3656
RightLeg  63.2256 -0.73807 -2.15514
RightFoot  -2.03064 -0.496239 5.91778
RightToes  2.96424e-010 1.2921e-014 -6.02303e-014
Spine  -3.87092 -1.03504 -3.46695
Spine1  8.67301 -0.0747786 -6.27838
HEad  15.1211 8.88346 -2.22804
LeftShoulder1  1.2332 -0.987118 -22.679
LeftArm  -5.10643 0.123683 -49.8443
LeftForeArm  22.0175 3.2284 -11.6998
LeftHand  -0.0636564 3.9269 3.60091
RightShoulder  1.88908 2.55736 26.2116
RightArm  -19.2839 5.93071 52.0577
RightForeArm  71.0923 -4.68218 6.3902
RightHand  0.0711829 -6.01261 -16.1342
LeftUpLeg  -16.1289 -2.86024 -4.25006
LeftLeg  19.5247 2.27973 2.05174
LeftFoot  -5.85968 0.0515204 -0.339822
LeftToes  -1.2485e-010 1.20979e-011 -1.0929e-011
378
root  33.0884 38.155 98.5701 -171.808 -69.0815 173.301
RightUpLeg  -18.5296 -5.88098 -9.4091
RightLeg  63.0269 0.15634 -0.21578
RightFoot  -3.54435 -0.449733 6.23789
RightToes  2.96424e-010 1.2921e-014 -6.02303e-014
Spine  -3.35938 -1.32954 -4.3206
Spine1  8.16336 -0.484559 -5.878
HEad  15.0293 7.80912 -1.79783
LeftShoulder1  1.40257 -1.61927 -22.4194
LeftArm  -4.74878 -2.51806 -49.9144
LeftForeArm  21.573 1.96207 -11.763
LeftHand  -0.0724876 3.72859 3.87294
RightShoulder  1.85257 2.34797 26.7771
RightArm  -18.7738 4.40048 52.2746
RightForeArm  71.3754 -4.73324 6.78423
RightHand  0.090348 -6.16342 -15.9456
LeftUpLeg  -15.0709 -2.82738 -4.12542
LeftLeg  19.9789 0.659406 1.70506
LeftFoot  -7.32214 0.0432533 0.0221099
LeftToes  -1.2485e-010 1.20979e-011 -1.0929e-011
379
root  32.2916 38.2027 98.2755 -172.789 -70.6242 174.325
RightUpLeg  -21.0802 -5.67725 -7.05564
RightLeg  60.4199 -1.32748 -3.02768
RightFoot  -4.92717 -0.385205 6.26849
RightToes  2.96424e-010 1.2921e-014 -6.02303e-014
Spine  -3.04695 -1.77243 -4.88913
Spine1  7.95984 -1.01438 -5.30243
HEad  14.5575 7.3452 -1.54622
LeftShoulder1  1.5547 -2.18571 -22.2451
LeftArm  -4.17068 -5.57545 -49.8461
LeftForeArm  20.6468 0.494065 -11.8945
LeftHand  -0.0785768 3.52133 3.8861
RightShoulder  1.78406 2.08223 27.1272
RightArm  -18.5288 3.12039 52.6885
RightForeArm  72.0903 -4.53979 7.03377
RightHand  0.0988173 -6.24504 -15.6465
LeftUpLeg  -13.7084 -2.47069 -3.85838
LeftLeg  20.2004 -0.842235 1.32652
LeftFoot  -8.72914 0.0438073 0.379773
LeftToes  -1.2485e-010 1.20979e-011 -1.0929e-011
380
root  31.4798 38.2653 98.0009 -173.481 -71.9484 174.987
RightUpLeg  -22.8511 -6.46882 -5.22765
RightLeg  55.5839 -3.79793 -6.35318
RightFoot  -6.87228 -0.271592 5.75622
RightToes  2.96424e-010 1.2921e-014 -6.02303e-014
Spine  -2.90406 -2.2591 -5.38567
Spine1  7.95623 -1.55217 -4.57025
HEad  13.9734 7.2374 -1.49606
LeftShoulder1  1.73206 -2.80351 -22.2908
LeftArm  -3.86389 -8.94733 -49.5959
LeftForeArm  19.4894 -0.814778 -11.934
LeftHand  -0.0824531 3.25225 3.67094
RightShoulder  1.80227 2.15132 27.0405
RightArm  -18.8391 2.12063 53.1329
RightForeArm  72.2854 -4.8226 6.92025
RightHand  0.0961452 -6.21725 -15.7678
LeftUpLeg  -12.0619 -2.20615 -3.659
LeftLeg  19.9229 -2.23001 0.922519
LeftFoot  -9.85845 0.0503834 0.683972
LeftToes  -1.2485e-010 1.20979e-011 -1.0929e-011
381
root  30.6612 38.366 97.7479 -174.863 -72.6826 176.428
RightUpLeg  -23.9892 -7.01291 -3.45439
RightLeg  48.4112 -6.68983 -8.33019
RightFoot  -6.21624 -0.262766 4.92219
RightToes  2.96424e-010 1.2921e-014 -6.02303e-014
Spine  -2.9008 -2.59905 -5.06301
Spine1  7.98241 -1.80615 -4.30033
HEad  13.4243 7.17222 -1.55685
LeftShoulder1  1.92339 -3.48995 -22.2427
LeftArm  -3.67027 -12.5622 -49.3291
LeftForeArm  17.2668 -1.77224 -11.9516
LeftHand  -0.0794668 3.02379 3.45759
RightShoulder  1.78228 2.0807 27.1026
RightArm  -19.3022 1.36329 53.3902
RightForeArm  72.2909 -5.19979 6.72174
RightHand  0.101483 -6.25686 -15.7727
LeftUpLeg  -10.242 -1.73507 -3.25357
LeftLeg  19.1443 -3.2 0.70435
LeftFoot  -10.6309 0.0570195 1.10497
LeftToes  -1.2485e-010 1.20979e-011 -1.0929e-011
382
root  29.8181 38.451 97.4824 -175.964 -72.7556 177.617
RightUpLeg  -24.253 -6.7133 -2.08575
RightLeg  39.2198 -9.24094 -8.25577
RightFoot  -4.70048 -0.317727 4.9207
RightToes  2.96424e-010 1.2921e-014 -6.02303e-014
Spine  -3.06458 -2.77125 -4.50692
Spine1  7.92115 -1.82532 -4.33194
HEad  13.3509 7.36378 -1.55854
LeftShoulder1  2.12053 -4.22001 -22.1115
LeftArm  -4.26213 -15.8552 -49.0204
LeftForeArm  14.8704 -2.53146 -11.6982
LeftHand  -0.0793497 2.83088 2.99947
RightShoulder  1.77791 2.02594 27.369
RightArm  -20.2994 0.853071 53.4554
RightForeArm  72.6049 -5.64897 6.22965
RightHand  0.0956913 -6.20388 -15.9297
LeftUpLeg  -8.28588 -1.13556 -2.90632
LeftLeg  18.1329 -3.6749 0.64431
LeftFoot  -11.4053 0.0692801 1.37513
LeftToes  -1.2485e-010 1.20979e-011 -1.0929e-011
383
root  28.9589 38.4883 97.2187 -176.593 -72.4517 178.385
RightUpLeg  -23.5757 -6.19323 -1.05874
RightLeg  28.1349 -10.9196 -6.48365
RightFoot  -3.61895 -0.361384 4.98491
RightToes  2.96424e-010 1.2921e-014 -6.02303e-014
Spine  -3.53441 -2.9412 -3.95402
Spine1  8.13939 -1.87691 -4.29021
HEad  13.4008 7.89932 -1.83051
LeftShoulder1  2.28972 -4.86484 -21.9507
LeftArm  -5.45991 -18.9853 -48.7948
LeftForeArm  12.0261 -2.87922 -11.2442
LeftHand  -0.0820528 2.65012 2.95376
RightShoulder  1.8643 2.2988 27.2927
RightArm  -21.3751 0.570682 53.4605
RightForeArm  72.9918 -5.55667 5.75893
RightHand  0.0818773 -6.08767 -16.1921
LeftUpLeg  -6.47817 -0.90014 -2.71629
LeftLeg  17.3788 -3.374 0.747129
LeftFoot  -12.2837 0.0899504 1.96497
LeftToes  -1.2485e-010 1.20979e-011 -1.0929e-011
